<?xml version="1.0"?>
<svg width="102" height="102" viewBox="0 0 102 102" xmlns="http://www.w3.org/2000/svg" xmlns:svg="http://www.w3.org/2000/svg">
 <g class="layer">
  <title>Layer 1</title>
  <path d="m73.09,40.86l-18.05,0l4.79,-24.64c5.91,1.7 11.33,4.88 15.8,9.34c6.95,6.96 10.78,16.21 10.78,26.04c0,9.84 -3.83,19.09 -10.78,26.04c-6.96,6.96 -16.21,10.79 -26.04,10.79c-3.07,0 -6.08,-0.38 -8.98,-1.1c-0.02,0 -0.03,-0.01 -0.05,-0.01l32.53,-46.46zm-49.54,36.78c-6.96,-6.95 -10.79,-16.2 -10.79,-26.04c0,-9.83 3.83,-19.08 10.79,-26.04c6.95,-6.95 16.2,-10.78 26.04,-10.78c0.95,0 1.9,0.04 2.84,0.11c0.04,0 0.08,0.01 0.12,0.01l-26.49,37.83l6.82,0l22.85,-37.44l0.86,-1.4l0.54,-0.88l-0.28,0.93l-0.24,0.81l-8.85,30.07l16.1,0l-21.83,35.76l9.37,-31.81l-12.77,0l-2.41,3.96l7.89,0l-6.55,33.7c-5.21,-1.8 -10,-4.77 -14.01,-8.79m26.04,12.31c10.24,0 19.87,-3.99 27.12,-11.23c7.24,-7.24 11.23,-16.87 11.23,-27.12c0,-10.24 -3.99,-19.87 -11.23,-27.12c-4.69,-4.68 -10.38,-8.01 -16.59,-9.77l2.86,-14.71l-9.42,13.46c-0.04,0 -0.07,-0.01 -0.11,-0.01c-1.28,-0.13 -2.56,-0.2 -3.86,-0.2c-10.25,0 -19.88,3.99 -27.12,11.23c-7.24,7.25 -11.23,16.88 -11.23,27.12c0,10.25 3.99,19.88 11.23,27.12c4.24,4.24 9.29,7.36 14.8,9.22l-1.1,5.65l3.45,-4.94c0.02,0.01 0.03,0.01 0.04,0.01c3.2,0.85 6.53,1.29 9.93,1.29" id="svg_1"/>
  <path d="m6.17,71.71c-1.27,-2.8 -2.31,-5.7 -3.02,-8.69c-0.37,-1.48 -0.63,-3 -0.87,-4.51c-0.09,-0.77 -0.2,-1.52 -0.26,-2.29c-0.03,-0.38 -0.07,-0.76 -0.1,-1.15l-0.06,-1.14a47.7,47.7 0 0 1 2.67,-18.09c2.03,-5.78 5.21,-11.15 9.27,-15.74c4.05,-4.58 9,-8.38 14.47,-11.1a47.5,47.5 0 0 1 17.57,-4.83c3.53,-0.26 7.09,-0.14 10.59,0.37l1.45,-2.04c-4.03,-0.67 -8.14,-0.83 -12.2,-0.5c-6.37,0.5 -12.64,2.26 -18.34,5.13a50,50 0 0 0 -15.03,11.66a49.6,49.6 0 0 0 -9.57,16.42a49.6,49.6 0 0 0 -2.67,18.8l0.07,1.19c0.03,0.4 0.07,0.79 0.1,1.19c0.07,0.79 0.19,1.58 0.29,2.37c0.25,1.57 0.53,3.14 0.93,4.68c0.75,3.09 1.84,6.1 3.17,8.98c2.7,5.76 6.5,11 11.15,15.33a49.9,49.9 0 0 0 13.11,8.77c0.12,-0.5 0.31,-0.98 0.55,-1.42c-4.6,-2.16 -8.86,-5.05 -12.56,-8.52c-4.48,-4.22 -8.13,-9.3 -10.71,-14.87" id="svg_2"/>
  <path d="m97.29,36.77c-0.96,-3.06 -2.22,-6.03 -3.75,-8.84a50,50 0 0 0 -12.15,-14.74c-4.7,-3.89 -10.13,-6.9 -15.92,-8.82l-0.44,2.26a47.5,47.5 0 0 1 14.85,8.39c4.68,3.9 8.61,8.71 11.49,14.08c1.44,2.69 2.62,5.51 3.51,8.42c0.9,2.91 1.51,5.9 1.82,8.93c0.63,6.05 0.11,12.23 -1.56,18.07a47.4,47.4 0 0 1 -8.23,16.13a47.7,47.7 0 0 1 -13.68,11.86a47,47 0 0 1 -17.1,5.84l-1.13,0.14l-0.56,0.07l-0.57,0.04l-1.13,0.08c-0.38,0.03 -0.76,0.07 -1.14,0.07c-0.75,0.01 -1.51,0.04 -2.27,0.04s-1.51,-0.03 -2.27,-0.07c-2,-0.11 -4,-0.35 -5.97,-0.71l0,0.02c0,1.06 -0.27,2.06 -0.74,2.93c2.17,0.39 4.36,0.65 6.55,0.76c0.81,0.04 1.61,0.06 2.42,0.06c0.8,0 1.6,-0.04 2.41,-0.06c0.4,0 0.8,-0.04 1.2,-0.07l1.21,-0.09l0.6,-0.05l0.6,-0.08l1.2,-0.16c6.37,-0.89 12.57,-3.04 18.13,-6.29a50.3,50.3 0 0 0 14.41,-12.63c3.94,-5.08 6.9,-10.92 8.62,-17.1c1.74,-6.19 2.25,-12.7 1.56,-19.08c-0.35,-3.18 -1.01,-6.34 -1.97,-9.4" id="svg_3"/>
  <path d="m39.08,98.27l-0.57,-2.01l-1.21,0.35a2.8,2.8 0 0 0 -2.4,-1.37c-1.35,0 -2.47,0.95 -2.73,2.21l-0.76,0.56l-0.79,-1.08l0.58,2.01l0.98,-0.28c0.12,0.53 0.39,0.99 0.76,1.36l-1.33,0.38l0.57,1.97l0.09,-1.3l3.99,0l0.37,1.3l1.78,-1.1l-1.28,0.27l0,-1.84c0.35,-0.46 0.56,-1.04 0.56,-1.67c0,-0.13 -0.01,-0.26 -0.03,-0.38l0.64,-0.46l0.78,1.08z" id="svg_4"/>
  
  
  
  
  
  
  
  
  
  
  
  
  
  
  
  
  
 </g>
</svg>